# AST/ASF file generated using VICON BodyLanguage
# -----------------------------------------------
:version 1.10
:name VICON
:units
  mass 1.0
  length 0.45
  angle deg
:documentation
   .ast/.asf automatically generated from VICON data using
   VICON BodyBuilder and BodyLanguage model FoxedUp or BRILLIANT.MOD
:root
   order TX TY TZ RX RY RZ
   axis XYZ
   position 0 0 0  
   orientation 0 0 0 
:bonedata
  begin
     id 1 
     name lhipjoint
     direction 0.523584 -0.783993 0.333487 
     length 2.44404 
     axis 0 0 0  XYZ
  end
  begin
     id 2 
     name lfemur
     direction 0.34202 -0.939693 0  
     length 7.29523  
     axis 0 0 20  XYZ
    dof rx ry rz
    limits (-160.0 20.0)
           (-70.0 70.0)
           (-60.0 70.0)
  end
  begin
     id 3 
     name ltibia
     direction 0.34215 -0.939645 0   
     length 7.81194   
     axis 0 0 20   XYZ
    dof rx
    limits (-10.0 170.0)
  end
  begin
     id 4 
     name lfoot
     direction 0.0941847 -0.25877 0.961336   
     length 2.41437   
     axis -90 7.62852e-016 20   XYZ
    dof rx rz
    limits (-45.0 90.0)
           (-70.0 20.0)
  end
  begin
     id 5 
     name ltoes
     direction 1.53526e-011 -4.21768e-011 1   
     length 1.2048   
     axis -90 7.62852e-016 20   XYZ
    dof rx
    limits (-90.0 20.0)
  end
  begin
     id 6 
     name rhipjoint
     direction -0.46599 -0.814191 0.346332   
     length 2.35339  
     axis 0 0 0  XYZ 
  end
  begin
     id 7 
     name rfemur
     direction -0.34202 -0.939693 0   
     length 7.34966   
     axis 0 0 -20   XYZ
    dof rx ry rz
    limits (-160.0 20.0)
           (-70.0 70.0)
           (-70.0 60.0)
  end
  begin
     id 8 
     name rtibia
     direction -0.34202 -0.939693 0   
     length 7.89934   
     axis 0 0 -20   XYZ
    dof rx
    limits (-10.0 170.0)
 end
 begin
     id 9 
     name rfoot
     direction -0.0975468 -0.268008 0.958466   
     length 2.27725  
     axis -90 -7.62852e-016 -20   XYZ
    dof rx rz
    limits (-45.0 90.0)
           (-20.0 70.0)
  end
  begin
     id 10 
     name rtoes
     direction -1.53563e-011 -4.22022e-011 1   
     length 1.13683   
     axis -90 -7.62852e-016 -20   XYZ
    dof rx
    limits (-90.0 20.0)
  end
  begin
     id 11 
     name lowerback
     direction -0.00456414 0.999242 -0.0386661   
     length 2.16968   
     axis 0 0 0   XYZ
    dof rx ry rz
    limits (-20.0 45.0)
           (-30.0 30.0)
           (-30.0 30.0)
  end
  begin
     id 12 
     name upperback
     direction 0.0297078 0.998988 0.0337799   
     length 2.15674   
     axis 0 0 0   XYZ
    dof rx ry rz
    limits (-20.0 45.0)
           (-30.0 30.0)
           (-30.0 30.0)
  end
  begin
     id 13 
     name thorax
     direction 0.0309305 0.998202 0.0513506   
     length 2.16319   
     axis 0 0 0   XYZ
    dof rx ry rz
    limits (-20.0 45.0)
           (-30.0 30.0)
           (-30.0 30.0)
  end
  begin
     id 14 
     name lowerneck
     direction -0.103039 0.983474 0.148872   
     length 1.64318   
     axis 0 0 0   XYZ
    dof rx ry rz
    limits (-20.0 45.0)
           (-30.0 30.0)
           (-30.0 30.0)
  end
  begin
     id 15 
     name upperneck
     direction 0.128124 0.971079 -0.201469   
     length 1.68242   
     axis 0 0 0   XYZ
    dof rx ry rz
    limits (-20.0 45.0)
           (-30.0 30.0)
           (-30.0 30.0)
  end
  begin
     id 16
     name head
     direction 0.0496365 0.994919 -0.0875941  
     length 1.70108  
     axis 0 0 0   XYZ
    dof rx ry rz
    limits (-20.0 45.0)
           (-30.0 30.0)
           (-30.0 30.0)
  end
  begin
     id 17 
     name lclavicle
     direction 0.887148 0.430222 -0.166967  
     length 3.25763  
     axis 0 0 0   XYZ
    dof ry rz
    limits (-20.0 10.0)
           (0.0 20.0)
  end
  begin
     id 18 
     name lhumerus
     direction 1 -4.48962e-011 1.92156e-027   
     length 5.10755   
     axis 180 -30 -90   XYZ
    dof rx ry rz
    limits (-60.0 90.0)
           (-90.0 90.0)
           (-90.0 90.0)
  end
  begin
     id 19
     name lradius
     direction 1 -4.48958e-011 7.10963e-027   
     length 3.36253   
     axis 180 -30 -90   XYZ
    dof rx
    limits (-10.0 170.0)
  end
  begin
     id 20
     name lwrist
     direction 1 -4.48946e-011 1.82396e-026   
     length 1.68127   
     axis -1.15222e-014 90 90   XYZ
    dof ry
    limits (-180.0 0.0)
 end
  begin
     id 21 
     name lhand
     direction 1 -4.48919e-011 3.64759e-026   
     length 0.619088   
     axis -2.32787e-014 90 90   XYZ
    dof rx rz
    limits (-90.0 90.0)
           (-45.0 45.0)
  end
  begin
     id 22 
     name lfingers
     direction 1 -4.49012e-011 7.29744e-026   
     length 0.499125   
     axis -4.6558e-014 90 90   XYZ
    dof rx
    limits (0.0 90.0)
  end
  begin
     id 23
     name lthumb
     direction 0.707107 -6.35028e-011 0.707107   
     length 0.716646   
     axis -90 45 3.78391e-014   XYZ
    dof rx rz
    limits (-45.0 45.0)
           (-45.0 45.0)
  end
  begin
     id 24 
     name rclavicle
     direction -0.82886 0.533198 -0.169384   
     length 3.20647  
     axis 0 0 0   XYZ 
    dof ry rz
    limits (-10.0 20.0)
           (-20.0 0.0)
  end
  begin
     id 25 
     name rhumerus
     direction -1 -4.48973e-011 3.06863e-027  
     length 5.27387   
     axis 180 30 90   XYZ
    dof rx ry rz
    limits (-90.0 60.0)
           (-90.0 90.0)
           (-90.0 90.0)
  end
  begin
     id 26 
     name rradius
     direction -1 -4.48988e-011 9.4797e-027   
     length 3.40144   
     axis 180 30 90   XYZ
    dof rx
    limits (-10.0 170.0)
  end
  begin
     id 27 
     name rwrist
     direction -1 -4.48897e-011 1.82366e-026   
     length 1.70072   
     axis -1.15222e-014 -90 -90   XYZ
    dof ry
    limits (-180.0 0.0)
  end
  begin
     id 28
     name rhand
     direction -1 -4.48965e-011 3.64815e-026   
     length 0.742821   
     axis -2.32787e-014 -90 -90   XYZ
    dof rx rz
    limits (-90.0 90.0)
           (-45.0 45.0)
  end
  begin
     id 29
     name rfingers
     direction -1 -4.49016e-011 7.29754e-026   
     length 0.598881   
     axis -4.6558e-014 -90 -90   XYZ
    dof rx
    limits (0.0 90.0)
  end
  begin
     id 30
     name rthumb
     direction -0.707107 -6.3488e-011 0.707107   
     length 0.859877   
     axis -90 -45 -3.78391e-014   XYZ
    dof rx rz
    limits (-45.0 45.0)
           (-45.0 45.0)
  end
:hierarchy
  begin
    root lhipjoint rhipjoint lowerback
    lhipjoint lfemur
    lfemur ltibia
    ltibia lfoot
    lfoot ltoes
    rhipjoint rfemur
    rfemur rtibia
    rtibia rfoot
    rfoot rtoes
    lowerback upperback
    upperback thorax
    thorax lowerneck lclavicle rclavicle
    lowerneck upperneck
    upperneck head
    lclavicle lhumerus
    lhumerus lradius
    lradius lwrist
    lwrist lhand lthumb
    lhand lfingers
    rclavicle rhumerus
    rhumerus rradius
    rradius rwrist
    rwrist rhand rthumb
    rhand rfingers
  end

#!OML:ASF F:\Work\Patient Classification 1\justin\Session 1\justin.ASF
:FULLY-SPECIFIED
:DEGREES
2051
root 0.629207 18.4971 -4.59536 3.74809 3.66739 -2.76353
lowerback 10.401 3.52298 0.751102
upperback 0.58974 4.94485 3.06749
thorax -5.41962 2.45594 2.04274
lowerneck -15.4061 -9.62806 -19.2021
upperneck 13.8943 -11.6282 15.6683
head 8.99049 -5.19826 6.96353
rclavicle -1.89839e-014 -2.70347e-014
rhumerus 28.5215 22.1256 -52.8771
rradius 53.3395
rwrist 16.2752
rhand -6.81493 6.10077
rfingers 7.12502
rthumb 19.0488 -22.9864
lclavicle -1.89839e-014 -2.70347e-014
lhumerus 52.2973 -18.6733 59.4505
lradius 74.2662
lwrist -17.5111
lhand -11.5389 32.1245
lfingers 7.12502
lthumb 14.5013 61.5978
rfemur -6.86046 -0.283683 23.2714
rtibia 17.6664
rfoot -10.7932 -4.21381
rtoes -10.6652
lfemur -7.87494 1.97963 -16.389
ltibia 18.7466
lfoot -10.2441 1.55269
ltoes -15.3765
2052
root 0.634766 18.4915 -4.60088 3.80534 3.28383 -2.80242
lowerback 10.3656 3.39348 0.60632
upperback 0.748007 4.75148 3.11364
thorax -5.24225 2.36484 2.20804
lowerneck -16.2531 -9.60184 -19.2026
upperneck 14.1964 -11.4653 15.6765
head 9.21423 -5.08476 6.98188
rclavicle -5.66536e-015 2.14687e-014
rhumerus 27.9126 23.2916 -52.9993
rradius 54.6991
rwrist 16.2585
rhand -6.50098 6.4976
rfingers 7.12502
rthumb 19.3507 -22.5596
lclavicle -5.66536e-015 2.14687e-014
lhumerus 54.0204 -17.752 59.4468
lradius 71.8706
lwrist -17.1437
lhand -11.7141 32.3796
lfingers 7.12502
lthumb 14.3325 61.8649
rfemur -7.09015 -0.301877 23.288
rtibia 17.8906
rfoot -10.7225 -3.96496
rtoes -10.8074
lfemur -7.72171 2.11346 -16.3655
ltibia 18.5726
lfoot -10.276 1.66459
ltoes -15.4686
2053
root 0.638384 18.485 -4.60336 3.81174 2.94334 -2.83148
lowerback 10.3962 3.27295 0.379339
upperback 0.872214 4.56636 3.20596
thorax -5.14719 2.27961 2.46127
lowerneck -16.988 -9.56085 -18.9876
upperneck 14.4506 -11.2675 15.2862
head 9.3526 -4.98325 6.82514
rclavicle 2.73329e-014 7.15625e-015
rhumerus 27.0538 24.3446 -53.2168
rradius 56.1227
rwrist 16.6693
rhand -6.35457 6.66577
rfingers 7.12502
rthumb 19.4915 -22.3772
lclavicle 2.73329e-014 7.15625e-015
lhumerus 55.1755 -16.9533 59.3603
lradius 69.6653
lwrist -16.7079
lhand -12.0083 32.8846
lfingers 7.12502
lthumb 14.049 62.3897
rfemur -7.16208 -0.282497 23.303
rtibia 18.0301
rfoot -10.8072 -3.75257
rtoes -10.0428
lfemur -7.50297 2.23465 -16.3477
ltibia 18.3969
lfoot -10.2847 1.78773
ltoes -15.6677
2054
root 0.634898 18.4878 -4.6013 3.74368 2.65112 -2.84136
lowerback 10.4906 3.20261 0.0565044
upperback 0.922977 4.441 3.29934
thorax -5.17333 2.22599 2.75526
lowerneck -17.1452 -9.42322 -18.7164
upperneck 14.401 -11.0383 14.9518
head 9.27978 -4.88435 6.69175
rclavicle -4.47266e-014 -4.77083e-015
rhumerus 25.7675 25.1937 -53.5973
rradius 57.6048
rwrist 17.1839
rhand -5.93124 7.34077
rfingers 7.12502
rthumb 19.8985 -21.6605
lclavicle -4.47266e-014 -4.77083e-015
lhumerus 55.9703 -16.5266 59.1655
lradius 67.6808
lwrist -16.138
lhand -11.3493 33.8047
lfingers 7.12502
lthumb 14.684 63.2647
rfemur -7.14964 -0.151261 23.3533
rtibia 18.1584
rfoot -10.9454 -3.80014
rtoes -10.0182
lfemur -7.29194 2.36642 -16.304
ltibia 18.2458
lfoot -10.2154 1.84687
ltoes -15.6459
2055
root 0.632038 18.4924 -4.59912 3.6963 2.41263 -2.81161
lowerback 10.6021 3.12132 -0.239892
upperback 0.928021 4.30151 3.32492
thorax -5.24701 2.16431 2.96451
lowerneck -17.3077 -9.3573 -18.6231
upperneck 14.468 -10.9417 14.9256
head 9.30634 -4.83002 6.68186
rclavicle -3.33958e-014 -4.37326e-014
rhumerus 24.4209 26.0754 -54.0295
rradius 59.1249
rwrist 17.2425
rhand -5.6084 7.69591
rfingers 7.12502
rthumb 20.2088 -21.2729
lclavicle -3.33958e-014 -4.37326e-014
lhumerus 56.9512 -16.2341 59.2174
lradius 65.4061
lwrist -16.6698
lhand -10.2743 34.2995
lfingers 7.12502
lthumb 15.7195 63.6811
rfemur -7.1524 -0.171282 23.3588
rtibia 18.216
rfoot -10.911 -3.78595
rtoes -10.5844
lfemur -7.14825 2.49224 -16.3032
ltibia 18.1772
lfoot -10.2003 1.8521
ltoes -15.5423
2056
root 0.629114 18.4949 -4.60253 3.76788 2.06645 -2.88697
lowerback 10.6531 3.04276 -0.472842
upperback 0.860116 4.17528 3.37156
thorax -5.36001 2.10916 3.16022
lowerneck -17.5186 -9.27906 -18.5327
upperneck 14.596 -10.8264 14.9067
head 9.35989 -4.76478 6.67904
rclavicle 2.70347e-014 4.53229e-014
rhumerus 23.0586 27.2086 -54.5071
rradius 60.8928
rwrist 16.6826
rhand -5.72118 6.74443
rfingers 7.12502
rthumb 20.1004 -22.2358
lclavicle 2.70347e-014 4.53229e-014
lhumerus 57.8219 -15.8351 59.3729
lradius 62.7267
lwrist -17.49
lhand -10.5923 33.9312
lfingers 7.12502
lthumb 15.4132 63.3366
rfemur -7.24474 -0.143283 23.4612
rtibia 18.195
rfoot -10.8063 -3.62606
rtoes -11.0072
lfemur -7.15684 2.71855 -16.2104
ltibia 18.1547
lfoot -10.2561 1.89671
ltoes -15.6172
2057
root 0.624133 18.4939 -4.60803 3.87319 1.64718 -3.02052
lowerback 10.6652 2.98196 -0.707202
upperback 0.754913 4.07477 3.44825
thorax -5.49365 2.06826 3.38602
lowerneck -17.4681 -9.09273 -18.5592
upperneck 14.5778 -10.5895 15.0192
head 9.3101 -4.64837 6.76759
rclavicle -6.63941e-014 1.43125e-014
rhumerus 21.7091 28.4914 -54.8998
rradius 62.8172
rwrist 15.8506
rhand -5.95511 5.27335
rfingers 7.12502
rthumb 19.8755 -23.7303
lclavicle -6.63941e-014 1.43125e-014
lhumerus 58.4587 -15.429 59.3138
lradius 59.9702
lwrist -17.2568
lhand -11.9705 32.9988
lfingers 7.12502
lthumb 14.0854 62.5014
rfemur -7.39248 0.0467045 23.6284
rtibia 18.1938
rfoot -10.9185 -3.57806
rtoes -11.1298
lfemur -7.15413 2.83323 -16.0244
ltibia 18.1343
lfoot -10.3786 1.9788
ltoes -14.8477
2058
root 0.620947 18.4916 -4.609 3.87484 1.35642 -3.07975
lowerback 10.6909 2.87339 -0.958648
upperback 0.724679 3.90554 3.5146
thorax -5.55014 1.99298 3.62339
lowerneck -17.537 -8.89911 -18.7091
upperneck 14.6784 -10.3229 15.2412
head 9.33076 -4.51076 6.92349
rclavicle -2.78299e-014 -1.43125e-014
rhumerus 20.718 29.5463 -55.1319
rradius 64.5887
rwrist 15.7904
rhand -5.71558 5.46708
rfingers 7.12502
rthumb 20.1057 -23.5126
lclavicle -2.78299e-014 -1.43125e-014
lhumerus 59.2387 -15.027 59.3379
lradius 57.2705
lwrist -17.0905
lhand -12.5783 32.5255
lfingers 7.12502
lthumb 13.4997 62.068
rfemur -7.43461 0.172728 23.7159
rtibia 18.2299
rfoot -10.7666 -3.63034
rtoes -11.318
lfemur -7.0641 2.81116 -15.9194
ltibia 18.1187
lfoot -10.3818 2.0657
ltoes -14.1444
2059
root 0.620352 18.4898 -4.61255 3.86721 1.18841 -3.08931
lowerback 10.6986 2.70326 -1.17878
upperback 0.836716 3.65244 3.56565
thorax -5.43473 1.8722 3.84435
lowerneck -18.2048 -8.83029 -18.6266
upperneck 14.9562 -10.1341 15.1549
head 9.50005 -4.39954 6.90642
rclavicle -2.32578e-014 -6.36111e-015
rhumerus 20.2523 30.5406 -55.0304
rradius 66.3259
rwrist 15.412
rhand -5.53021 5.54005
rfingers 7.12502
rthumb 20.2839 -23.4208
lclavicle -2.32578e-014 -6.36111e-015
lhumerus 60.2867 -14.488 59.7077
lradius 54.7618
lwrist -17.4928
lhand -12.0357 33.2133
lfingers 7.12502
lthumb 14.0226 62.7203
rfemur -7.45376 0.112251 23.7466
rtibia 18.2586
rfoot -10.6525 -3.57293
rtoes -11.2548
lfemur -7.12052 2.93314 -15.9317
ltibia 18.0939
lfoot -10.236 2.20018
ltoes -15.4624
2060
root 0.623016 18.4882 -4.61751 3.88996 0.982662 -3.03496
lowerback 10.6406 2.51626 -1.40895
upperback 1.13052 3.36837 3.58122
thorax -5.08457 1.73018 4.04327
lowerneck -19.5785 -8.83857 -18.4983
upperneck 15.3725 -9.94815 15.0634
head 9.84289 -4.25941 6.87448
rclavicle 2.71341e-014 -2.38542e-015
rhumerus 19.9366 31.1967 -54.9167
rradius 68.1611
rwrist 15.1866
rhand -5.54924 5.38864
rfingers 7.12502
rthumb 20.2656 -23.5741
lclavicle 2.71341e-014 -2.38542e-015
lhumerus 61.3737 -13.6553 60.3423
lradius 52.4178
lwrist -18.4386
lhand -10.4268 33.3551
lfingers 7.12502
lthumb 15.5726 62.7482
rfemur -7.50829 -0.111622 23.6764
rtibia 18.28
rfoot -10.472 -3.28496
rtoes -11.2018
lfemur -7.19129 3.0555 -16.026
ltibia 18.0607
lfoot -10.136 2.35455
ltoes -16.8812
2061
root 0.622328 18.485 -4.62215 3.86197 0.693836 -3.15722
lowerback 10.6873 2.38551 -1.53674
upperback 1.19751 3.17989 3.62341
thorax -5.03374 1.63872 4.18953
lowerneck -20.0348 -8.64575 -18.4207
upperneck 15.553 -9.64829 15.1286
head 9.93166 -4.09238 6.94017
rclavicle -1.94809e-014 -1.27222e-014
rhumerus 18.9252 31.9379 -55.1582
rradius 70.1818
rwrist 15.0293
rhand -5.6455 5.14203
rfingers 7.12502
rthumb 20.1731 -23.8305
lclavicle -1.94809e-014 -1.27222e-014
lhumerus 61.9219 -13.0677 61.1123
lradius 50.0722
lwrist -20.6035
lhand -8.29268 32.7885
lfingers 7.12502
lthumb 17.6272 62.0094
rfemur -7.53849 -0.142668 23.8104
rtibia 18.3506
rfoot -10.4267 -3.0693
rtoes -11.3351
lfemur -7.09633 3.13323 -15.8734
ltibia 18.0261
lfoot -10.127 2.44775
ltoes -17.1114
2062
root 0.6184 18.4819 -4.63115 3.87504 0.451663 -3.37254
lowerback 10.8318 2.26884 -1.60213
upperback 0.948954 3.02604 3.66177
thorax -5.36823 1.57229 4.2845
lowerneck -19.3626 -8.27073 -18.0835
upperneck 15.383 -9.28817 14.951
head 9.65517 -3.94931 6.88242
rclavicle -1.95803e-014 -3.10104e-014
rhumerus 17.6473 32.824 -55.5785
rradius 72.1222
rwrist 14.6556
rhand -5.36139 5.01381
rfingers 7.12502
rthumb 20.4462 -23.9297
lclavicle -1.95803e-014 -3.10104e-014
lhumerus 62.0932 -13.121 61.359
lradius 47.1096
lwrist -19.1966
lhand -12.3145 32.7885
lfingers 7.12502
lthumb 13.7539 62.3139
rfemur -7.64684 0.0606728 24.0749
rtibia 18.4538
rfoot -10.5096 -3.07202
rtoes -11.921
lfemur -7.07149 3.21658 -15.5995
ltibia 17.978
lfoot -10.0963 2.4997
ltoes -17.1639
2063
root 0.620136 18.4825 -4.6384 4.01205 0.281913 -3.31686
lowerback 10.7452 2.12238 -1.82147
upperback 0.721628 2.80474 3.55989
thorax -5.54477 1.47296 4.33688
lowerneck -18.9593 -7.95478 -18.0275
upperneck 15.5247 -9.00164 15.1884
head 9.58987 -3.80799 7.02208
rclavicle 2.04748e-014 -9.54166e-015
rhumerus 16.4885 33.5704 -56.0877
rradius 74.0664
rwrist 14.3939
rhand -5.03045 4.95981
rfingers 7.12502
rthumb 20.7642 -23.9492
lclavicle 2.04748e-014 -9.54166e-015
lhumerus 62.264 -13.1557 61.618
lradius 44.8926
lwrist -17.9065
lhand -13.2764 32.9455
lfingers 7.12502
lthumb 12.8267 62.5314
rfemur -7.87914 0.0409769 24.0049
rtibia 18.5286
rfoot -10.5391 -2.94862
rtoes -12.105
lfemur -7.2212 3.2229 -15.6603
ltibia 17.9363
lfoot -10.0433 2.56224
ltoes -17.55
2064
root 0.624083 18.4861 -4.64105 4.14792 0.0767042 -3.17307
lowerback 10.7197 1.9723 -2.08273
upperback 0.445807 2.5712 3.41709
thorax -5.80482 1.37074 4.37025
lowerneck -18.8929 -7.71641 -18.5266
upperneck 16.097 -8.76248 15.9361
head 9.79936 -3.66394 7.45699
rclavicle 5.76476e-015 2.42517e-014
rhumerus 14.9809 34.5731 -56.6805
rradius 76.3146
rwrist 15.0178
rhand -5.56971 3.57511
rfingers 7.12502
rthumb 20.2459 -25.3897
lclavicle 5.76476e-015 2.42517e-014
lhumerus 62.1951 -13.1507 62.0643
lradius 42.745
lwrist -17.7189
lhand -13.7123 32.7701
lfingers 7.12502
lthumb 12.4065 62.3819
rfemur -8.10379 -0.273748 23.8074
rtibia 18.5849
rfoot -10.4487 -2.53071
rtoes -11.0125
lfemur -7.33684 3.21407 -15.826
ltibia 17.9097
lfoot -10.0161 2.61623
ltoes -17.3892
2065
root 0.622599 18.488 -4.64259 4.20657 -0.193693 -3.19112
lowerback 11.0875 1.84136 -2.24358
upperback -0.0190183 2.38013 3.35526
thorax -6.49083 1.29853 4.41854
lowerneck -18.2654 -7.38787 -18.6077
upperneck 16.2448 -8.42747 16.0243
head 9.67807 -3.53312 7.57209
rclavicle 5.56597e-015 1.07344e-014
rhumerus 13.1789 36.0598 -57.1906
rradius 78.6793
rwrist 16.5999
rhand -7.08202 0.809065
rfingers 7.12502
rthumb 18.7919 -28.3032
lclavicle 5.56597e-015 1.07344e-014
lhumerus 61.6375 -13.2135 62.7225
lradius 40.3794
lwrist -18.9719
lhand -14.5585 32.5395
lfingers 7.12502
lthumb 11.5905 62.199
rfemur -8.23138 -0.371202 23.8172
rtibia 18.6259
rfoot -10.3823 -2.38068
rtoes -10.6935
lfemur -7.32946 3.25443 -15.7665
ltibia 17.8831
lfoot -10.07 2.59582
ltoes -16.558
